<?xml version="1.0" standalone="no"?>
<!DOCTYPE svg PUBLIC "-//W3C//DTD SVG 20010904//EN"
 "http://www.w3.org/TR/2001/REC-SVG-20010904/DTD/svg10.dtd">
<svg version="1.0" xmlns="http://www.w3.org/2000/svg"
 width="500.000000pt" height="500.000000pt" viewBox="0 0 500.000000 500.000000"
 preserveAspectRatio="xMidYMid meet">

<g transform="translate(0.000000,500.000000) scale(0.100000,-0.100000)"
fill="#000000" stroke="none">
<path d="M3115 4712 c-97 -47 -167 -136 -231 -294 l-31 -77 -47 30 c-187 118
-426 197 -665 220 -144 14 -413 -3 -551 -35 -370 -84 -656 -292 -868 -631 -67
-108 -168 -324 -211 -455 -162 -484 -174 -1006 -36 -1570 93 -378 272 -718
509 -967 289 -306 654 -487 1022 -510 l102 -6 6 -54 c16 -138 119 -225 248
-210 126 15 208 118 208 262 l0 54 78 17 c121 26 186 75 198 149 18 120 -77
215 -198 199 l-51 -7 7 59 c8 66 53 364 62 406 5 24 11 28 37 28 18 0 321 18
674 42 354 23 646 39 649 35 10 -10 66 -257 124 -547 27 -135 58 -275 70 -313
37 -119 114 -178 233 -178 110 0 188 46 233 136 34 70 35 142 4 305 -97 520
-305 1599 -376 1950 -104 514 -247 1041 -359 1325 -119 300 -288 511 -492 612
-90 45 -100 48 -191 51 -90 3 -101 1 -157 -26z m-660 -602 c119 -25 285 -100
285 -128 0 -10 -18 -76 -41 -147 -249 -799 -393 -1419 -503 -2172 -31 -212
-73 -577 -82 -717 -4 -57 -10 -110 -15 -117 -6 -11 -24 -9 -86 9 -210 61 -382
178 -552 377 -241 280 -371 589 -438 1040 -25 169 -25 586 0 735 34 204 79
354 158 520 166 349 389 546 694 614 104 23 443 15 580 -14z m969 -120 c36
-70 157 -447 230 -720 66 -249 272 -1201 278 -1290 l3 -44 -135 -22 c-121 -20
-316 -40 -854 -89 -102 -9 -173 -12 -179 -6 -11 11 14 215 49 396 62 319 181
810 283 1170 47 168 49 170 75 167 51 -5 102 17 144 62 68 74 66 137 -9 248
-22 32 -39 64 -39 71 0 11 33 117 56 177 7 21 53 -35 98 -120z"/>
</g>
</svg>
